<svg width="42" height="42" viewBox="0 0 42 42" fill="none" xmlns="http://www.w3.org/2000/svg">
<path d="M5.25 2.625H2.625V36.75C2.625 37.4462 2.90156 38.1139 3.39384 38.6062C3.88613 39.0984 4.55381 39.375 5.25 39.375H39.375V36.75H5.25V2.625Z" fill="#111111"/>
<path d="M39.375 11.8125H30.1875V14.4375H34.8994L24.9375 24.3994L19.3069 18.7556C19.1849 18.6326 19.0397 18.535 18.8798 18.4683C18.7198 18.4017 18.5483 18.3674 18.375 18.3674C18.2017 18.3674 18.0302 18.4017 17.8702 18.4683C17.7103 18.535 17.5651 18.6326 17.4431 18.7556L7.875 28.3369L9.72562 30.1875L18.375 21.5381L24.0056 27.1819C24.1276 27.3049 24.2728 27.4025 24.4327 27.4692C24.5927 27.5358 24.7642 27.5701 24.9375 27.5701C25.1108 27.5701 25.2823 27.5358 25.4423 27.4692C25.6022 27.4025 25.7474 27.3049 25.8694 27.1819L36.75 16.2881V21H39.375V11.8125Z" fill="#111111"/>
</svg>
