<svg width="38" height="32" viewBox="0 0 38 32" fill="none" xmlns="http://www.w3.org/2000/svg">
<path d="M4.07146 7.85728H33.9286M19 7.85728V2.42871M14.9286 22.7859L8.14289 7.85728L1.35718 22.7859C1.35718 24.5855 2.0721 26.3115 3.34467 27.5841C4.61724 28.8566 6.34321 29.5716 8.14289 29.5716C9.94258 29.5716 11.6685 28.8566 12.9411 27.5841C14.2137 26.3115 14.9286 24.5855 14.9286 22.7859ZM36.6429 22.7859L29.8572 7.85728L23.0715 22.7859C23.0715 24.5855 23.7864 26.3115 25.059 27.5841C26.3315 28.8566 28.0575 29.5716 29.8572 29.5716C31.6569 29.5716 33.3828 28.8566 34.6554 27.5841C35.928 26.3115 36.6429 24.5855 36.6429 22.7859Z" stroke="#111111" stroke-width="3" stroke-linecap="round" stroke-linejoin="round"/>
</svg>
