<svg width="34" height="34" viewBox="0 0 34 34" fill="none" xmlns="http://www.w3.org/2000/svg">
<g clip-path="url(#clip0_1_1479)">
<path d="M24.5 20.6919C24.5 22.1199 25.2398 22.6894 26.3023 22.6894C28.6704 22.6894 30.1783 19.6719 30.1783 14.6535C30.1783 6.98314 24.5887 3.31114 17.6102 3.31114C10.4311 3.31114 3.90141 8.12554 3.90141 17.2239C3.90141 25.9143 9.61341 30.6471 18.3854 30.6471C21.3638 30.6471 23.363 30.3207 26.4213 29.3007L27.0775 32.0326C24.0583 33.0135 20.8317 33.2974 18.3446 33.2974C6.83902 33.2974 0.676514 26.9734 0.676514 17.2222C0.676514 7.38944 7.81821 0.698242 17.651 0.698242C27.8918 0.698242 33.3165 6.81824 33.3165 14.3254C33.3165 20.6902 31.319 25.5454 25.0358 25.5454C22.1781 25.5454 20.303 24.403 20.0582 21.8717C19.3238 24.6869 17.3654 25.5454 14.7117 25.5454C12.5 25.5454 9.25598 22.7302 9.25598 17.2239C9.25598 11.6751 12 8.32784 15.4886 8.32784C17.9774 8.32784 19.5278 9.30704 20.218 10.8574L21.4029 8.69504H24.5V20.6919ZM19.8168 15.3063C19.8168 13.064 18.1423 12.1239 16.7551 12.1239C15.2455 12.1239 13.5744 13.3462 13.5744 16.9383C13.5744 19.7943 14.8392 21.3855 16.7551 21.3855C18.1015 21.3855 19.8168 20.5287 19.8168 18.1623V15.3063Z" fill="#111111"/>
</g>
<defs>
<clipPath id="clip0_1_1479">
<rect width="34" height="34" fill="white"/>
</clipPath>
</defs>
</svg>
