<svg width="33" height="27" viewBox="0 0 33 27" fill="none" xmlns="http://www.w3.org/2000/svg">
<path d="M2.35704 4.643C3.00795 4.643 3.53561 4.14731 3.53561 3.53585C3.53561 2.9244 3.00795 2.42871 2.35704 2.42871C1.70613 2.42871 1.17847 2.9244 1.17847 3.53585C1.17847 4.14731 1.70613 4.643 2.35704 4.643Z" stroke="white" stroke-width="3" stroke-linecap="round" stroke-linejoin="round"/>
<path d="M10.6069 3.53613H31.8212" stroke="white" stroke-width="3" stroke-linecap="round" stroke-linejoin="round"/>
<path d="M2.35704 14.6069C3.00795 14.6069 3.53561 14.1112 3.53561 13.4997C3.53561 12.8883 3.00795 12.3926 2.35704 12.3926C1.70613 12.3926 1.17847 12.8883 1.17847 13.4997C1.17847 14.1112 1.70613 14.6069 2.35704 14.6069Z" stroke="white" stroke-width="3" stroke-linecap="round" stroke-linejoin="round"/>
<path d="M10.6069 13.5H31.8212" stroke="white" stroke-width="3" stroke-linecap="round" stroke-linejoin="round"/>
<path d="M2.35704 24.5717C3.00795 24.5717 3.53561 24.076 3.53561 23.4646C3.53561 22.8531 3.00795 22.3574 2.35704 22.3574C1.70613 22.3574 1.17847 22.8531 1.17847 23.4646C1.17847 24.076 1.70613 24.5717 2.35704 24.5717Z" stroke="white" stroke-width="3" stroke-linecap="round" stroke-linejoin="round"/>
<path d="M10.6069 23.4648H31.8212" stroke="white" stroke-width="3" stroke-linecap="round" stroke-linejoin="round"/>
</svg>
