<svg width="26" height="25" viewBox="0 0 26 25" fill="none" xmlns="http://www.w3.org/2000/svg">
<path d="M25.1116 20.0138L20.7196 15.7846L17.3413 14.4407C18.4662 12.9004 19.0688 11.0628 19.0666 9.17978C19.0666 4.11802 14.79 0 9.53331 0C4.27661 0 0 4.11802 0 9.17978C0 14.2415 4.27661 18.3596 9.53331 18.3596C11.5059 18.3617 13.43 17.7714 15.0377 16.6708L16.4297 19.9151L20.8216 24.1444C21.1033 24.4157 21.4377 24.6308 21.8057 24.7776C22.1737 24.9244 22.5682 25 22.9665 25C23.3649 25 23.7593 24.9245 24.1274 24.7777C24.4954 24.6309 24.8298 24.4158 25.1115 24.1446C25.3932 23.8733 25.6166 23.5513 25.7691 23.197C25.9215 22.8426 26 22.4628 26 22.0792C26 21.6956 25.9216 21.3158 25.7691 20.9614C25.6167 20.607 25.3933 20.285 25.1116 20.0138ZM1.73333 9.17978C1.73333 5.03844 5.23249 1.66905 9.53331 1.66905C13.8341 1.66905 17.3333 5.03844 17.3333 9.17978C17.3333 13.3211 13.8341 16.6905 9.53331 16.6905C5.23249 16.6905 1.73333 13.3211 1.73333 9.17978ZM23.8859 22.9643C23.6419 23.1987 23.3113 23.3303 22.9666 23.3303C22.6219 23.3303 22.2913 23.1987 22.0474 22.9643L17.8997 18.9704L16.6055 15.9539L19.7383 17.2001L23.886 21.194C24.1294 21.4289 24.2661 21.7473 24.2661 22.0791C24.266 22.411 24.1293 22.7293 23.8859 22.9643Z" fill="#515151"/>
</svg>
