<svg width="35" height="34" viewBox="0 0 35 34" fill="none" xmlns="http://www.w3.org/2000/svg">
<path d="M32.9583 34C28.9074 34 24.9051 33.1418 20.9514 31.4254C16.9977 29.7091 13.4005 27.2774 10.1597 24.1306C6.91898 20.9824 4.41583 17.488 2.65028 13.6472C0.884722 9.80648 0.0012963 5.91852 0 1.98333C0 1.41667 0.194444 0.944444 0.583333 0.566667C0.972222 0.188889 1.45833 0 2.04167 0H9.91667C10.3704 0 10.7755 0.149852 11.1319 0.449555C11.4884 0.749259 11.6991 1.10311 11.7639 1.51111L13.0278 8.12222C13.0926 8.62593 13.0764 9.05093 12.9792 9.39722C12.8819 9.74352 12.7037 10.0426 12.4444 10.2944L7.72917 14.9222C8.37731 16.087 9.14667 17.2122 10.0372 18.2977C10.9278 19.3831 11.9084 20.4302 12.9792 21.4389C13.9838 22.4148 15.037 23.3202 16.1389 24.1551C17.2407 24.99 18.4074 25.7531 19.6389 26.4444L24.2083 22.0056C24.5 21.7222 24.8811 21.5094 25.3517 21.3671C25.8222 21.2248 26.2837 21.1858 26.7361 21.25L33.4444 22.5722C33.8982 22.6981 34.2708 22.9267 34.5625 23.2579C34.8542 23.5891 35 23.9587 35 24.3667V32.0167C35 32.5833 34.8056 33.0556 34.4167 33.4333C34.0278 33.8111 33.5417 34 32.9583 34ZM5.88194 11.3333L9.09028 8.21667L8.26389 3.77778H3.9375C4.09954 5.06852 4.32639 6.34352 4.61806 7.60278C4.90972 8.86204 5.33102 10.1056 5.88194 11.3333ZM23.2847 28.2389C24.5486 28.7741 25.8371 29.1991 27.1503 29.5139C28.4634 29.8287 29.7837 30.0333 31.1111 30.1278V25.9722L26.5417 25.075L23.2847 28.2389Z" fill="#111111"/>
</svg>
