<svg width="40" height="40" viewBox="0 0 40 40" fill="none" xmlns="http://www.w3.org/2000/svg">
<path fill-rule="evenodd" clip-rule="evenodd" d="M20 13.75C18.3424 13.75 16.7527 14.4085 15.5806 15.5806C14.4085 16.7527 13.75 18.3424 13.75 20C13.75 21.6576 14.4085 23.2473 15.5806 24.4194C16.7527 25.5915 18.3424 26.25 20 26.25C21.6576 26.25 23.2473 25.5915 24.4194 24.4194C25.5915 23.2473 26.25 21.6576 26.25 20C26.25 18.3424 25.5915 16.7527 24.4194 15.5806C23.2473 14.4085 21.6576 13.75 20 13.75ZM16.25 20C16.25 19.0054 16.6451 18.0516 17.3483 17.3483C18.0516 16.6451 19.0054 16.25 20 16.25C20.9946 16.25 21.9484 16.6451 22.6516 17.3483C23.3549 18.0516 23.75 19.0054 23.75 20C23.75 20.9946 23.3549 21.9484 22.6516 22.6516C21.9484 23.3549 20.9946 23.75 20 23.75C19.0054 23.75 18.0516 23.3549 17.3483 22.6516C16.6451 21.9484 16.25 20.9946 16.25 20Z" fill="black"/>
<path fill-rule="evenodd" clip-rule="evenodd" d="M19.9584 2.08301C19.2167 2.08301 18.5984 2.08301 18.0917 2.11634C17.5738 2.13791 17.063 2.2449 16.58 2.43301C16.0238 2.66316 15.5183 3.00063 15.0925 3.42615C14.6667 3.85168 14.3289 4.35691 14.0984 4.91301C13.8567 5.49634 13.7917 6.11301 13.765 6.78301C13.7624 7.02804 13.6975 7.26838 13.5765 7.48149C13.4555 7.69459 13.2824 7.87347 13.0734 8.00134C12.8582 8.11885 12.6166 8.17973 12.3715 8.17827C12.1263 8.17681 11.8855 8.11306 11.6717 7.99301C11.0784 7.67967 10.5117 7.42801 9.88503 7.34467C9.28827 7.26618 8.6819 7.30599 8.10052 7.46185C7.51915 7.6177 6.97417 7.88654 6.4967 8.25301C6.09299 8.57781 5.74556 8.96691 5.46836 9.40467C5.18503 9.82801 4.87503 10.363 4.50503 11.0047L4.46336 11.078C4.0917 11.7197 3.78336 12.2547 3.56003 12.7113C3.3267 13.188 3.14336 13.658 3.0767 14.178C2.9177 15.383 3.24383 16.6018 3.98337 17.5663C4.36837 18.068 4.87003 18.433 5.4367 18.7897C5.64796 18.9146 5.82398 19.0912 5.94819 19.3028C6.0724 19.5145 6.14071 19.7543 6.1467 19.9997C6.14071 20.245 6.0724 20.4848 5.94819 20.6965C5.82398 20.9082 5.64796 21.0848 5.4367 21.2097C4.87003 21.5663 4.37003 21.9313 3.98337 22.433C3.61689 22.9105 3.34806 23.4555 3.1922 24.0368C3.03635 24.6182 2.99654 25.2246 3.07503 25.8213C3.14337 26.3413 3.32503 26.8113 3.55836 27.288C3.78337 27.7447 4.0917 28.2797 4.46336 28.9213L4.50503 28.9947C4.87503 29.6363 5.18503 30.1713 5.46836 30.5947C5.76336 31.033 6.08003 31.428 6.4967 31.7447C6.97405 32.1114 7.51897 32.3806 8.10035 32.5367C8.68172 32.6929 9.28816 32.7329 9.88503 32.6547C10.5117 32.5713 11.0784 32.3213 11.6717 32.0063C11.8852 31.8864 12.1257 31.8228 12.3706 31.8213C12.6155 31.8198 12.8568 31.8806 13.0717 31.998C13.2819 32.1249 13.4561 32.3035 13.5778 32.5167C13.6994 32.73 13.7645 32.9708 13.7667 33.2163C13.7917 33.8863 13.8567 34.503 14.1 35.0863C14.3302 35.6426 14.6677 36.1481 15.0932 36.5739C15.5187 36.9997 16.0239 37.3375 16.58 37.568C17.0634 37.768 17.5634 37.8463 18.0917 37.8813C18.5984 37.9163 19.2167 37.9163 19.9584 37.9163H20.0417C20.7834 37.9163 21.4017 37.9163 21.9084 37.883C22.4384 37.8463 22.9367 37.768 23.42 37.5663C23.9763 37.3362 24.4817 36.9987 24.9076 36.5732C25.3334 36.1477 25.6712 35.6424 25.9017 35.0863C26.1434 34.503 26.2084 33.8863 26.235 33.2163C26.2374 32.971 26.3022 32.7303 26.4231 32.5169C26.5441 32.3035 26.7174 32.1244 26.9267 31.9963C27.142 31.8791 27.3836 31.8185 27.6288 31.8202C27.874 31.822 28.1147 31.886 28.3284 32.0063C28.9217 32.3197 29.4884 32.5713 30.115 32.653C31.32 32.812 32.5388 32.4859 33.5034 31.7463C33.92 31.4263 34.2367 31.033 34.5317 30.5947C34.815 30.1713 35.125 29.6363 35.495 28.9947L35.5367 28.9213C35.9084 28.2797 36.2167 27.7447 36.44 27.288C36.6734 26.8113 36.8567 26.3397 36.9234 25.8213C37.0824 24.6164 36.7562 23.3976 36.0167 22.433C35.6317 21.9313 35.13 21.5663 34.5634 21.2097C34.3521 21.0848 34.1761 20.9082 34.0519 20.6965C33.9277 20.4848 33.8594 20.245 33.8534 19.9997C33.8534 19.5363 34.1067 19.0763 34.5634 18.7897C35.13 18.433 35.63 18.068 36.0167 17.5663C36.3832 17.0889 36.652 16.5439 36.8079 15.9625C36.9637 15.3811 37.0035 14.7748 36.925 14.178C36.8457 13.6659 36.6824 13.1703 36.4417 12.7113C36.1572 12.1576 35.8553 11.6129 35.5367 11.078L35.495 11.0047C35.1906 10.4615 34.8693 9.9279 34.5317 9.40467C34.2545 8.96737 33.9071 8.57882 33.5034 8.25467C33.026 7.88791 32.4811 7.61877 31.8997 7.46263C31.3183 7.3065 30.7119 7.26641 30.115 7.34467C29.4884 7.42801 28.9217 7.67801 28.3284 7.99301C28.1148 8.11277 27.8743 8.17635 27.6294 8.17781C27.3846 8.17927 27.1434 8.11855 26.9284 8.00134C26.7187 7.87387 26.5449 7.69517 26.4233 7.48204C26.3018 7.26891 26.2364 7.02836 26.2334 6.78301C26.2084 6.11301 26.1434 5.49634 25.9 4.91301C25.6699 4.35676 25.3324 3.85129 24.9069 3.42549C24.4814 2.99968 23.9761 2.66186 23.42 2.43134C22.9367 2.23134 22.4367 2.15301 21.9084 2.11801C21.4017 2.08301 20.7834 2.08301 20.0417 2.08301H19.9584ZM17.5367 4.74134C17.665 4.68801 17.86 4.63967 18.2617 4.61134C18.6734 4.58301 19.2067 4.58301 20 4.58301C20.7934 4.58301 21.3267 4.58301 21.7384 4.61134C22.14 4.63967 22.335 4.68801 22.4634 4.74134C22.975 4.95301 23.38 5.35801 23.5917 5.86967C23.6584 6.02967 23.7134 6.28134 23.735 6.87634C23.785 8.19634 24.4667 9.46801 25.6767 10.1663C26.8867 10.8663 28.3284 10.8197 29.4967 10.203C30.0234 9.92467 30.2684 9.84634 30.4417 9.82467C30.9893 9.75232 31.5432 9.90039 31.9817 10.2363C32.0917 10.3213 32.2317 10.4663 32.4567 10.7997C32.6884 11.143 32.955 11.6047 33.3517 12.2913C33.7484 12.978 34.0134 13.4413 34.195 13.8113C34.3734 14.173 34.4284 14.3663 34.445 14.5047C34.5174 15.0523 34.3693 15.6062 34.0334 16.0447C33.9267 16.183 33.7367 16.3563 33.2334 16.673C32.1134 17.3763 31.3534 18.603 31.3534 19.9997C31.3534 21.3963 32.1134 22.623 33.2334 23.3263C33.7367 23.643 33.9267 23.8163 34.0334 23.9547C34.37 24.393 34.5167 24.9463 34.445 25.4947C34.4284 25.633 34.3717 25.828 34.195 26.188C34.0134 26.5597 33.7484 27.0213 33.3517 27.708C32.955 28.3947 32.6867 28.8563 32.4567 29.1997C32.2317 29.533 32.0917 29.678 31.9817 29.763C31.5432 30.099 30.9893 30.247 30.4417 30.1747C30.2684 30.153 30.025 30.0747 29.4967 29.7963C28.33 29.1797 26.8867 29.133 25.6767 29.8313C24.4667 30.5313 23.785 31.803 23.735 33.123C23.7134 33.718 23.6584 33.9697 23.5917 34.1297C23.487 34.3827 23.3335 34.6125 23.1398 34.8062C22.9462 34.9998 22.7164 35.1533 22.4634 35.258C22.335 35.3113 22.14 35.3597 21.7384 35.388C21.3267 35.4163 20.7934 35.4163 20 35.4163C19.2067 35.4163 18.6734 35.4163 18.2617 35.388C17.86 35.3597 17.665 35.3113 17.5367 35.258C17.2837 35.1533 17.0538 34.9998 16.8602 34.8062C16.6666 34.6125 16.5131 34.3827 16.4084 34.1297C16.3417 33.9697 16.2867 33.718 16.265 33.123C16.215 31.803 15.5334 30.5313 14.3234 29.833C13.1134 29.133 11.6717 29.1797 10.5034 29.7963C9.9767 30.0747 9.7317 30.153 9.55837 30.1747C9.01076 30.247 8.45683 30.099 8.01836 29.763C7.90837 29.678 7.76837 29.533 7.54337 29.1997C7.22988 28.7117 6.93141 28.2142 6.64837 27.708C6.2517 27.0213 5.9867 26.558 5.80503 26.188C5.6267 25.8263 5.5717 25.633 5.55503 25.4947C5.48267 24.9471 5.63075 24.3931 5.9667 23.9547C6.07336 23.8163 6.26337 23.643 6.7667 23.3263C7.8867 22.623 8.6467 21.3963 8.6467 19.9997C8.6467 18.603 7.8867 17.3763 6.7667 16.673C6.26337 16.3563 6.07336 16.183 5.9667 16.0447C5.63075 15.6062 5.48267 15.0523 5.55503 14.5047C5.5717 14.3663 5.62837 14.1713 5.80503 13.8113C5.9867 13.4397 6.2517 12.978 6.64837 12.2913C7.04503 11.6047 7.31337 11.143 7.54337 10.7997C7.76837 10.4663 7.90837 10.3213 8.01836 10.2363C8.45683 9.90039 9.01076 9.75232 9.55837 9.82467C9.7317 9.84634 9.97503 9.92467 10.5034 10.203C11.67 10.8197 13.1134 10.8663 14.3234 10.1663C15.5334 9.46801 16.215 8.19634 16.265 6.87634C16.2867 6.28134 16.3417 6.02967 16.4084 5.86967C16.62 5.35801 17.025 4.95301 17.5367 4.74134Z" fill="black"/>
</svg>
